<svg version="1.1" id="Layer_1" xmlns="http://www.w3.org/2000/svg" xmlns:xlink="http://www.w3.org/1999/xlink" x="0px" y="0px"
	 width="100%" viewBox="0 0 1024 336" enable-background="new 0 0 1024 336" xml:space="preserve">
<path fill="#000000" opacity="1.000000" stroke="none" 
	d="
M759.830322,252.658569 
	C781.129211,250.544693 792.691284,237.837875 792.696289,216.964539 
	C792.708252,166.806534 792.720032,116.648506 792.699829,66.490501 
	C792.691101,44.750446 779.222900,31.324266 757.468201,31.323339 
	C628.323853,31.317839 499.179016,31.484734 370.035522,31.146830 
	C350.866180,31.096674 334.655579,45.775955 334.899597,66.253693 
	C335.497284,116.404465 335.503754,166.572403 334.881683,216.722687 
	C334.627930,237.178406 348.908600,252.652634 369.215057,252.620926 
	C372.312927,252.616104 374.007233,253.788040 374.168060,256.813385 
	C374.306671,259.421082 376.037994,261.875214 374.968292,264.578766 
	C355.933105,268.211243 333.648468,257.527069 325.486359,236.788895 
	C322.866302,230.131851 322.109070,223.234009 322.102112,216.224869 
	C322.053436,167.066757 322.168060,117.908310 322.035889,68.750496 
	C321.985779,50.103966 328.037445,34.818100 344.572083,24.841257 
	C351.266663,20.801817 358.613403,18.688530 366.430511,18.686810 
	C498.074432,18.657829 629.718445,18.621468 761.362244,18.719183 
	C785.245972,18.736912 805.276917,39.025124 805.314941,62.900978 
	C805.398865,115.558418 805.388550,168.216141 805.323792,220.873627 
	C805.292297,246.522766 782.014832,267.522614 756.419373,265.320068 
	C753.165588,265.040039 752.260620,263.725647 753.312256,260.834564 
	C754.518555,257.518097 752.852844,252.024429 759.830322,252.658569 
z"/>
<path fill="#000000" opacity="1.000000" stroke="none" 
	d="
M896.939819,178.717041 
	C941.256226,163.931717 982.613831,195.238174 981.460266,242.295319 
	C980.657959,275.021362 961.890259,299.437317 931.698425,305.568817 
	C906.537292,310.678711 885.291748,303.639557 869.554626,282.529663 
	C869.177734,282.024109 868.695374,281.597229 867.346924,280.153900 
	C867.346924,286.823608 867.148987,292.401703 867.413025,297.957825 
	C867.604736,301.991333 866.338135,303.592957 862.090149,303.481873 
	C850.574646,303.180725 851.812500,304.417877 851.808411,293.325806 
	C851.785767,231.674225 851.794495,170.022629 851.875610,108.371147 
	C851.878784,105.933235 850.451477,102.305771 853.911865,101.412025 
	C857.867065,100.390480 862.233704,100.049149 866.159363,101.729347 
	C868.091797,102.556427 867.316895,105.014297 867.319580,106.767632 
	C867.362976,135.427185 867.358643,164.086807 867.364868,192.746414 
	C867.365540,195.565277 867.364929,198.384125 867.364929,202.783173 
	C875.378540,191.265305 884.507996,183.159592 896.939819,178.717041 
M932.393433,290.932770 
	C947.573914,285.865936 957.207153,275.392273 962.288269,260.408752 
	C965.352417,251.372894 965.426453,242.079590 964.686951,232.757401 
	C962.380371,203.682541 936.087097,183.763123 907.438599,189.012405 
	C879.879822,194.062027 861.598816,218.935822 866.811340,250.786179 
	C872.001587,282.500946 900.570618,299.676178 932.393433,290.932770 
z"/>
<path fill="#000000" opacity="1.000000" stroke="none" 
	d="
M143.862274,226.206467 
	C162.054626,252.365646 151.597519,289.343262 122.166183,302.370697 
	C95.771378,314.054016 59.081146,310.706268 36.971668,284.966187 
	C34.327148,281.887421 33.973450,280.136108 37.334850,277.390381 
	C44.859642,271.243866 44.722668,271.087036 51.701233,277.759308 
	C68.776436,294.085083 88.699341,298.294739 110.776939,290.575867 
	C130.874191,283.549438 140.718796,262.855927 133.736832,243.358780 
	C129.653488,231.956039 120.266853,225.735031 109.723991,221.441772 
	C97.085472,216.295166 84.113312,211.973251 71.343773,207.140594 
	C65.729347,205.015793 60.331772,202.361542 55.500889,198.722672 
	C30.098488,179.588318 30.321560,141.705139 55.943203,121.439232 
	C80.070030,102.355667 123.879128,104.960655 145.509506,126.765030 
	C150.147827,131.440659 150.147812,131.440643 145.132065,135.909348 
	C138.468445,141.846222 138.468460,141.846237 131.839966,135.817505 
	C115.512184,120.967117 88.629066,118.734848 69.914818,130.269608 
	C49.677746,142.742966 45.052322,175.663635 71.104546,190.020859 
	C82.015244,196.033691 94.062401,198.900040 105.492638,203.452362 
	C111.525009,205.854874 117.644493,208.054306 123.593864,210.645691 
	C131.489090,214.084641 138.403244,218.933105 143.862274,226.206467 
z"/>
<path fill="#000000" opacity="1.000000" stroke="none" 
	d="
M733.776672,202.295822 
	C747.804749,225.077194 748.778564,248.495316 738.012024,272.222290 
	C727.608459,295.149139 702.314087,308.697388 674.528259,307.170319 
	C647.114380,305.663696 625.082642,289.465759 616.482483,263.442108 
	C605.976379,231.651123 617.877625,195.433914 649.786011,181.152222 
	C679.734436,167.747803 715.098755,176.573517 733.776672,202.295822 
M636.179749,270.294037 
	C637.081604,271.491913 637.944458,272.721497 638.890991,273.882996 
	C658.847290,298.372131 696.095825,299.681183 716.673157,276.602753 
	C726.612061,265.455902 729.236023,252.128494 728.874695,237.617996 
	C728.115540,207.130524 702.565674,182.504379 666.893372,190.200516 
	C633.413025,197.423737 617.426392,239.302063 636.179749,270.294037 
z"/>
<path fill="#000000" opacity="1.000000" stroke="none" 
	d="
M466.639465,177.063553 
	C497.308502,185.188675 515.205139,208.459137 515.348572,240.017181 
	C515.478271,268.548462 503.727234,290.089447 477.086945,301.612030 
	C443.562683,316.112213 396.560608,304.022491 385.766205,259.079712 
	C372.347443,203.210220 416.628235,167.163345 463.774475,176.543411 
	C464.590332,176.705734 465.415985,176.818710 466.639465,177.063553 
M496.404358,221.167999 
	C484.647888,187.880798 446.825500,182.377411 424.072235,195.166977 
	C401.665588,207.761673 394.659454,236.247345 402.335663,259.978638 
	C409.256958,281.376038 427.155212,293.013458 451.255981,292.739014 
	C474.983948,292.468781 494.747955,276.181396 498.954712,252.990982 
	C500.852753,242.527771 499.796234,232.099960 496.404358,221.167999 
z"/>
<path fill="#000000" opacity="1.000000" stroke="none" 
	d="
M769.847046,64.385658 
	C772.441223,68.733162 772.902283,73.212547 772.921631,77.727081 
	C772.989502,93.554535 772.981750,109.382469 772.953369,125.210129 
	C772.938354,133.605286 770.944580,141.097992 763.070557,145.727600 
	C759.987061,147.540543 756.682251,148.386093 753.071777,148.381149 
	C724.248657,148.341766 695.425354,148.421616 666.602417,148.336456 
	C655.701538,148.304260 647.080566,140.253693 646.870361,129.253601 
	C646.520325,110.933723 646.548584,92.598709 646.850647,74.277214 
	C647.031189,63.324360 655.441956,54.901920 666.404846,54.810966 
	C695.225830,54.571865 724.051147,54.610397 752.872498,54.829445 
	C759.827393,54.882309 765.796570,57.823872 769.847046,64.385658 
M712.500000,135.764771 
	C725.151184,135.764816 737.802551,135.797043 750.453552,135.752365 
	C757.581238,135.727203 759.884216,133.561844 759.911255,126.636459 
	C759.976318,109.990425 759.969055,93.343742 759.898621,76.697716 
	C759.869629,69.845497 757.441833,67.395187 750.533142,67.379326 
	C723.399719,67.317024 696.266113,67.324936 669.132690,67.369225 
	C662.465332,67.380104 659.399231,70.469475 659.373108,77.191750 
	C659.309631,93.504906 659.311035,109.818634 659.371033,126.131821 
	C659.397095,133.208542 661.973145,135.734039 669.051941,135.754913 
	C683.201172,135.796631 697.350647,135.764801 712.500000,135.764771 
z"/>
<path fill="#000000" opacity="1.000000" stroke="none" 
	d="
M429.000061,54.699570 
	C439.327148,54.701275 449.154510,54.660786 458.981293,54.715668 
	C472.185028,54.789406 480.657318,62.401791 480.945343,75.442696 
	C481.335083,93.089195 481.294708,110.755798 480.950867,128.404266 
	C480.712830,140.620026 472.287872,148.339401 459.995575,148.360077 
	C432.013428,148.407120 404.031036,148.409317 376.048920,148.343491 
	C363.877991,148.314850 355.743530,140.133820 355.688141,127.900421 
	C355.609772,110.578430 355.623413,93.255684 355.680695,75.933533 
	C355.723236,63.067047 364.028290,54.787674 377.032745,54.722630 
	C394.188110,54.636826 411.344238,54.700466 429.000061,54.699570 
M368.832275,72.710175 
	C368.659546,74.187592 368.339539,75.664719 368.336700,77.142464 
	C368.304810,93.626007 368.284546,110.109772 368.343872,126.593178 
	C368.368317,133.383209 370.837250,135.754639 377.839172,135.761154 
	C404.812347,135.786270 431.785645,135.779953 458.758789,135.734482 
	C465.523712,135.723083 467.910309,133.474121 467.940979,126.836777 
	C468.018707,110.020607 467.994659,93.203506 467.910553,76.387283 
	C467.879211,70.118248 465.388641,67.431793 459.202698,67.408737 
	C431.896881,67.306953 404.590454,67.348465 377.284271,67.367294 
	C373.752197,67.369728 370.700195,68.390388 368.832275,72.710175 
z"/>
<path fill="#000000" opacity="1.000000" stroke="none" 
	d="
M502.707947,65.078491 
	C506.719025,57.174847 512.775513,53.545792 521.356445,53.582069 
	C549.329712,53.700317 577.303833,53.600063 605.277588,53.625874 
	C618.542175,53.638111 626.524292,60.660831 626.865417,73.795921 
	C627.319214,91.266884 627.310669,108.768135 626.841858,126.238686 
	C626.499207,139.005386 618.285339,146.300949 605.516052,146.317749 
	C577.708862,146.354340 549.901489,146.359131 522.094299,146.312210 
	C509.160828,146.290390 500.837402,138.052719 500.762085,125.120171 
	C500.664124,108.303177 500.748718,91.485168 500.727112,74.667641 
	C500.722992,71.457695 501.236511,68.375404 502.707947,65.078491 
M571.500000,66.192688 
	C555.347229,66.192947 539.194336,66.164825 523.041687,66.206589 
	C515.992126,66.224815 513.410706,68.750092 513.378296,75.856071 
	C513.304626,92.008514 513.304688,108.161758 513.379456,124.314186 
	C513.410583,131.028824 516.093445,133.661179 522.861450,133.672073 
	C550.171265,133.716034 577.481201,133.715881 604.790955,133.668167 
	C611.484741,133.656464 613.890808,131.315979 613.921082,124.679939 
	C613.996338,108.194534 613.980469,91.708267 613.901428,75.222816 
	C613.868042,68.265060 611.847168,66.269096 604.971924,66.224579 
	C594.148315,66.154480 583.324036,66.198143 571.500000,66.192688 
z"/>
<path fill="#000000" opacity="1.000000" stroke="none" 
	d="
M258.076752,292.093445 
	C267.306976,290.634216 275.029083,286.859375 281.655121,281.019653 
	C284.434601,278.570007 286.266449,278.297180 289.142120,281.037109 
	C295.817963,287.397797 295.994629,287.257507 288.991699,293.027222 
	C269.294922,309.255402 247.041351,310.989990 224.076080,302.658142 
	C202.037643,294.662598 189.483353,277.702301 185.728592,254.768692 
	C181.768173,230.579056 186.497879,208.610550 205.223450,191.279510 
	C227.739517,170.440247 267.642517,169.490845 288.737427,189.108002 
	C289.832977,190.126785 290.781097,191.304062 291.876160,192.323395 
	C294.172272,194.460800 293.601105,196.143692 291.456451,198.109436 
	C284.828583,204.184280 284.983002,204.116074 277.948914,198.701782 
	C263.637726,187.686050 247.700485,185.977493 231.208054,192.255737 
	C213.793961,198.884872 204.640472,212.546753 201.354324,230.560562 
	C199.032150,243.290054 200.765106,255.474609 206.333923,267.014038 
	C215.556824,286.125305 235.070129,295.563782 258.076752,292.093445 
z"/>
<path fill="#000000" opacity="1.000000" stroke="none" 
	d="
M577.000122,252.666656 
	C583.983826,252.666656 590.493347,253.021957 596.942749,252.551712 
	C601.851440,252.193832 604.069519,254.015808 604.272278,258.692444 
	C604.356201,260.628998 605.763245,262.486633 604.417114,264.901550 
	C577.803528,264.901550 550.981934,264.901550 523.962891,264.901550 
	C523.121338,261.089844 524.619263,257.843964 525.510376,254.588318 
	C526.224792,251.978333 528.740479,252.710220 530.615662,252.703583 
	C545.910339,252.649551 561.205200,252.669495 577.000122,252.666656 
z"/>
</svg>